<?xml version="1.0" encoding="UTF-8"?>
<svg version="1.1" xmlns="http://www.w3.org/2000/svg" width="512" height="512">
<path d="M0 0 C3.48209317 0.00478262 6.96413382 -0.00782269 10.44620943 -0.01801741 C17.24734619 -0.03511307 24.04839018 -0.03606464 30.84954283 -0.03080451 C36.38484915 -0.02674369 41.92012832 -0.02822891 47.45543337 -0.03355277 C48.24679511 -0.03430119 49.03815685 -0.03504961 49.85349925 -0.03582071 C51.46177608 -0.03735238 53.07005291 -0.03889073 54.67832974 -0.04043568 C69.72213716 -0.05412771 84.76589241 -0.04874665 99.80969861 -0.03725047 C113.53012424 -0.02732494 127.25041487 -0.04025286 140.97081968 -0.06418466 C155.10563188 -0.08865088 169.24038141 -0.09816492 183.37521434 -0.09153193 C191.29210524 -0.08805592 199.2088925 -0.09016367 207.12576723 -0.10778296 C213.86618255 -0.12259964 220.60642124 -0.12301839 227.34683344 -0.10571205 C230.77628414 -0.09727601 234.20542062 -0.09486733 237.63485384 -0.1103636 C256.2259315 -0.17678101 274.3338109 0.71495553 291.83774996 7.59433305 C292.60812593 7.88912553 293.37850191 8.18391801 294.17222261 8.4876436 C325.37503496 20.86426764 350.65048267 45.68840576 364.20884371 76.31210649 C365.74160768 79.96519395 367.11248745 83.66083623 368.40024996 87.40683305 C368.63075045 88.06925004 368.86125093 88.73166704 369.09873629 89.41415727 C374.33453998 105.60034731 374.53369363 121.45944698 374.49458301 138.31908309 C374.48980039 141.80117627 374.5024057 145.28321691 374.51260042 148.76529253 C374.52969608 155.56642928 374.53064765 162.36747328 374.52538752 169.16862592 C374.5213267 174.70393225 374.52281192 180.23921141 374.52813578 185.77451646 C374.5288842 186.5658782 374.52963262 187.35723994 374.53040372 188.17258234 C374.53193539 189.78085918 374.53347374 191.38913601 374.53501869 192.99741283 C374.54871072 208.04122025 374.54332966 223.08497551 374.53183348 238.12878171 C374.52190795 251.84920733 374.53483587 265.56949796 374.55876767 279.28990278 C374.58323389 293.42471498 374.59274793 307.55946451 374.58611494 321.69429743 C374.58263893 329.61118834 374.58474668 337.52797559 374.60236597 345.44485033 C374.61718265 352.18526564 374.6176014 358.92550433 374.60029506 365.66591653 C374.59185902 369.09536723 374.58945034 372.52450372 374.60494661 375.95393693 C374.67136403 394.5450146 373.77962748 412.652894 366.90024996 430.15683305 C366.60545748 430.92720903 366.310665 431.69758501 366.00693941 432.49130571 C356.13486544 457.37987552 337.96730112 479.44357757 315.08774996 493.40683305 C314.01524996 494.09003618 312.94274996 494.7732393 311.83774996 495.47714555 C305.45004956 499.3659539 298.94823783 502.48484403 291.96274996 505.15683305 C291.27874117 505.42640825 290.59473238 505.69598344 289.88999605 505.97372758 C271.57496724 512.61625088 252.95550458 512.98750368 233.69712496 512.92441118 C230.88921006 512.92764626 228.08132106 512.93682879 225.2734189 512.94565141 C218.48616735 512.96329401 211.69909425 512.95966107 204.91183615 512.94800085 C199.38806192 512.93890996 193.86433716 512.93776673 188.34055758 512.94209611 C187.54973779 512.94270905 186.75891801 512.94332198 185.944134 512.94395348 C184.33682329 512.94523258 182.7295126 512.94652944 181.12220192 512.94784385 C166.10506253 512.95920786 151.08802133 512.94620193 136.07089806 512.92464238 C123.22881 512.90677521 110.38686666 512.9098805 97.54478121 512.92831743 C82.57569806 512.94979842 67.60670065 512.95810962 52.63760424 512.94586837 C51.03671695 512.94459438 49.43582965 512.9433369 47.83494234 512.94209611 C47.04759258 512.94147901 46.26024282 512.94086191 45.44903398 512.94022611 C39.94182532 512.93679481 34.43467175 512.94255319 28.92747164 512.95201433 C22.20178323 512.96331652 15.47628117 512.96002387 8.75061369 512.93889135 C5.32917146 512.92848977 1.90829014 512.92627884 -1.51318693 512.93748796 C-22.88729031 513.00100847 -42.22548579 511.05828192 -61.91225004 502.40683305 C-62.56644926 502.12356157 -63.22064848 501.84029008 -63.89467192 501.54843462 C-93.98974488 488.26256094 -117.69643593 462.6852702 -129.78334379 432.21054399 C-130.63388989 429.95385314 -131.44074075 427.68745259 -132.22475004 425.40683305 C-132.57050077 424.41320756 -132.57050077 424.41320756 -132.92323637 423.39950883 C-138.15904006 407.2133188 -138.35819372 391.35421913 -138.31908309 374.49458301 C-138.31430048 371.01248984 -138.32690578 367.53044919 -138.33710051 364.04837358 C-138.35419617 357.24723682 -138.35514773 350.44619283 -138.3498876 343.64504018 C-138.34582678 338.10973386 -138.347312 332.5744547 -138.35263586 327.03914964 C-138.35338428 326.2477879 -138.3541327 325.45642616 -138.35490381 324.64108376 C-138.35643548 323.03280693 -138.35797382 321.4245301 -138.35951877 319.81625327 C-138.3732108 304.77244585 -138.36782974 289.7286906 -138.35633356 274.6848844 C-138.34640804 260.96445877 -138.35933595 247.24416814 -138.38326775 233.52376333 C-138.40773398 219.38895113 -138.41724801 205.2542016 -138.41061503 191.11936867 C-138.40713902 183.20247777 -138.40924677 175.28569051 -138.42686605 167.36881578 C-138.44168273 160.62840046 -138.44210148 153.88816178 -138.42479514 147.14774957 C-138.41635911 143.71829887 -138.41395042 140.28916239 -138.4294467 136.85972917 C-138.49586411 118.26865151 -137.60412757 100.16077211 -130.72475004 82.65683305 C-130.42995756 81.88645708 -130.13516508 81.1160811 -129.8314395 80.3223604 C-117.45481545 49.11954805 -92.63067734 23.84410034 -62.0069766 10.2857393 C-58.35388915 8.75297533 -54.65824686 7.38209556 -50.91225004 6.09433305 C-49.91862455 5.74858232 -49.91862455 5.74858232 -48.90492582 5.39584672 C-32.71873579 0.16004303 -16.85963612 -0.03911062 0 0 Z " fill="#FF786C" transform="translate(137.91225004196167,-0.40683305263519287)"/>
<path d="M0 0 C0.73240377 -0.00438225 1.46480753 -0.00876451 2.21940535 -0.01327956 C4.65698979 -0.02656123 7.09453818 -0.03282238 9.53215027 -0.03897095 C11.28720763 -0.04688059 13.0422634 -0.05515007 14.7973175 -0.06375122 C20.54900072 -0.08988132 26.30069086 -0.10527432 32.05241394 -0.11953735 C34.0403004 -0.12490158 36.02818683 -0.13027909 38.01607323 -0.13566971 C46.29357302 -0.15728918 54.57107095 -0.17602054 62.8485918 -0.1872921 C74.6672897 -0.20349713 86.48565713 -0.23660183 98.30423051 -0.29369295 C106.63749261 -0.33255897 114.97066697 -0.35194466 123.30401725 -0.35721266 C128.26890773 -0.36084463 133.23344505 -0.37263357 138.19823647 -0.4053154 C142.87943111 -0.43568915 147.5600643 -0.44160503 152.24133682 -0.42993164 C153.94472678 -0.4297133 155.64814506 -0.43781554 157.35144234 -0.45558548 C178.55484128 -0.66446909 198.08371176 5.16175364 214.40788269 19.15390015 C214.99698425 19.59991577 215.58608582 20.0459314 216.19303894 20.50546265 C230.83936763 31.91558659 240.14080921 52.06643245 242.40788269 70.15390015 C242.50315145 72.68333235 242.55097408 75.21481486 242.56178284 77.74601746 C242.56616509 78.47842122 242.57054734 79.21082499 242.57506239 79.96542281 C242.58834406 82.40300725 242.59460522 84.84055563 242.60075378 87.27816772 C242.60866343 89.03322508 242.61693291 90.78828085 242.62553406 92.54333496 C242.65166416 98.29501818 242.66705716 104.04670832 242.68132019 109.7984314 C242.68668441 111.78631786 242.69206193 113.77420429 242.69745255 115.76209068 C242.71907201 124.03959048 242.73780338 132.31708841 242.74907494 140.59460926 C242.76527996 152.41330716 242.79838466 164.23167459 242.85547578 176.05024797 C242.89434181 184.38351007 242.91372749 192.71668442 242.9189955 201.0500347 C242.92262747 206.01492519 242.9344164 210.97946251 242.96709824 215.94425392 C242.99747199 220.62544856 243.00338786 225.30608175 242.99171448 229.98735428 C242.99149614 231.69074423 242.99959837 233.39416252 243.01736832 235.09745979 C243.22625192 256.30085874 237.4000292 275.82972922 223.40788269 292.15390015 C222.96186707 292.74300171 222.51585144 293.33210327 222.05632019 293.9390564 C210.18126976 309.18217668 190.85754469 316.73222675 172.40788269 320.15390015 C166.27223113 320.9031052 160.12023713 320.82235694 153.94963074 320.76913452 C152.19616155 320.77264843 150.44269561 320.77832117 148.6892395 320.78594971 C143.99100895 320.80001989 139.29337622 320.78331663 134.59520316 320.75966454 C129.64505642 320.73933607 124.69492925 320.74544611 119.74475098 320.74777222 C111.44282853 320.7477189 103.14113566 320.72811282 94.83927917 320.69589233 C85.27503927 320.65895019 75.71109884 320.65022802 66.14679688 320.65718985 C56.89418843 320.66351747 47.64168135 320.65270274 38.3890934 320.63322449 C34.47359064 320.62510296 30.55814008 320.62233114 26.64262962 320.62391663 C22.02699373 320.62480239 17.41163775 320.61039552 12.79607582 320.58469009 C11.1136066 320.57759432 9.43110746 320.5754124 7.74862671 320.57880783 C-16.10364185 320.61772881 -36.61216135 313.96641798 -54.43977356 297.39608765 C-71.81319389 279.29746102 -78.41665635 257.18291975 -78.20735168 232.71737671 C-78.21086464 230.95420296 -78.21653633 229.19103244 -78.22416687 227.4278717 C-78.23825174 222.69859301 -78.22151817 217.96990718 -78.1978817 213.24068546 C-78.17756988 208.25983621 -78.18366249 203.27900675 -78.18598938 198.29812622 C-78.18593604 189.94314967 -78.1663174 181.58840105 -78.1341095 173.23348999 C-78.09717886 163.6073554 -78.08844323 153.98151833 -78.09540701 144.35532212 C-78.10173464 135.04558483 -78.09091909 125.7359483 -78.07144165 116.42623138 C-78.06331886 112.48560894 -78.06054855 108.54503836 -78.06213379 104.60440826 C-78.06301952 99.95841768 -78.04861344 95.3127052 -78.02290726 90.6667881 C-78.01581078 88.97303174 -78.01362992 87.27924565 -78.01702499 85.58547783 C-78.03821372 72.51173056 -76.96598435 60.0310827 -71.40461731 47.96640015 C-71.10491028 47.30059937 -70.80520325 46.63479858 -70.49641418 45.94882202 C-67.60738976 39.77167083 -63.91299239 34.42536774 -59.59211731 29.15390015 C-58.78000793 28.09815796 -58.78000793 28.09815796 -57.95149231 27.02108765 C-44.26439304 10.07831914 -21.47806902 0.09171581 0 0 Z " fill="#FE3A55" transform="translate(173.5921173095703,95.84609985351563)"/>
<path d="M0 0 C0.33 0 0.66 0 1 0 C1.0917689 33.1641885 1.16214662 66.32834378 1.20426132 99.4926305 C1.20926351 103.41745049 1.21444086 107.34227023 1.21972656 111.26708984 C1.22130043 112.43901806 1.22130043 112.43901806 1.22290608 113.63462159 C1.24026084 126.24704229 1.271771 138.85938926 1.30861118 151.47176638 C1.34615844 164.43536062 1.36826481 177.39891652 1.37635398 190.36256289 C1.38181335 198.3470567 1.39898819 206.33134205 1.43166587 214.31577161 C1.45552259 220.46197513 1.45778541 226.60802326 1.45243073 232.75426674 C1.45352233 235.25824317 1.46135945 237.76222822 1.4768219 240.26615715 C1.58238134 258.25744977 0.4659447 275.8209261 -6.1875 292.75 C-6.48229248 293.52037598 -6.77708496 294.29075195 -7.08081055 295.08447266 C-16.95288452 319.97304247 -35.12044884 342.03674451 -58 356 C-59.0725 356.68320312 -60.145 357.36640625 -61.25 358.0703125 C-67.6377004 361.95912084 -74.13951213 365.07801098 -81.125 367.75 C-81.80900879 368.0195752 -82.49301758 368.28915039 -83.19775391 368.56689453 C-101.51278272 375.20941783 -120.13224538 375.58067063 -139.390625 375.51757812 C-142.1985399 375.5208132 -145.0064289 375.52999573 -147.81433105 375.53881836 C-154.60158261 375.55646096 -161.3886557 375.55282802 -168.17591381 375.5411678 C-173.69968804 375.53207691 -179.22341279 375.53093368 -184.74719238 375.53526306 C-185.53801216 375.53587599 -186.32883194 375.53648893 -187.14361596 375.53712043 C-188.75092667 375.53839953 -190.35823736 375.53969639 -191.96554804 375.5410108 C-206.98268743 375.55237481 -221.99972862 375.53936888 -237.0168519 375.51780933 C-249.85893996 375.49994216 -262.7008833 375.50304745 -275.54296875 375.52148438 C-290.51205189 375.54296537 -305.48104931 375.55127657 -320.45014572 375.53903532 C-322.05103301 375.53776133 -323.65192031 375.53650384 -325.25280762 375.53526306 C-326.04015738 375.53464596 -326.82750714 375.53402886 -327.63871598 375.53339306 C-333.14592464 375.52996175 -338.6530782 375.53572014 -344.16027832 375.54518127 C-350.88596672 375.55648346 -357.61146879 375.55319082 -364.33713627 375.5320583 C-367.7585785 375.52165672 -371.17945982 375.51944578 -374.60093689 375.53065491 C-395.97504027 375.59417542 -415.31323575 373.65144887 -435 365 C-435.65419922 364.71672852 -436.30839844 364.43345703 -436.98242188 364.14160156 C-467.07749484 350.85572789 -490.78418589 325.27843714 -502.87109375 294.80371094 C-503.72163984 292.54702009 -504.5284907 290.28061954 -505.3125 288 C-505.65825073 287.00637451 -505.65825073 287.00637451 -506.01098633 285.99267578 C-510.23901972 272.92195045 -511.55243018 259.84040654 -511.4375 246.1875 C-511.43512329 245.4363089 -511.43274658 244.6851178 -511.43029785 243.91116333 C-511.35893911 229.3583926 -509.75967086 215.29608067 -507 201 C-506.85046875 200.17338867 -506.7009375 199.34677734 -506.546875 198.49511719 C-498.88728642 156.45603266 -477.45531213 114.18625808 -447 84 C-446.99761165 84.64069711 -446.99522329 85.28139421 -446.99276257 85.94150639 C-446.93340099 101.59413529 -446.85771768 117.24658978 -446.76428509 132.89904881 C-446.71948607 140.46873639 -446.68003568 148.03837859 -446.65356445 155.6081543 C-446.63045465 162.21268573 -446.59691439 168.8170716 -446.55129844 175.42148727 C-446.52753943 178.91240177 -446.50869816 182.40317369 -446.50238609 185.89416695 C-446.59041999 206.15602201 -446.59041999 206.15602201 -443 226 C-442.76876938 226.87365707 -442.53753876 227.74731415 -442.29930115 228.64744568 C-441.72517095 230.75250039 -441.07673743 232.80924484 -440.375 234.875 C-439.99867432 235.98681641 -439.99867432 235.98681641 -439.61474609 237.12109375 C-435.17698755 249.64749518 -428.85994453 261.07134621 -420 271 C-419.00613281 272.2065625 -419.00613281 272.2065625 -417.9921875 273.4375 C-400.82419971 293.7096627 -374.62184069 307.22269843 -348.20271873 309.78466034 C-341.27888257 310.25019498 -334.33227585 310.15687901 -327.39575195 310.16113281 C-325.62553302 310.16576888 -323.85531508 310.17079459 -322.08509827 310.17617798 C-317.29971228 310.18922671 -312.51434027 310.19573196 -307.72893929 310.20018864 C-304.73201771 310.20313115 -301.73509985 310.20723808 -298.73818016 310.21169281 C-289.34037652 310.22534698 -279.9425815 310.23502419 -270.54476863 310.2388947 C-259.73519701 310.24337256 -248.92575201 310.26091666 -238.11621886 310.2898953 C-229.73368397 310.31157959 -221.35118453 310.32160255 -212.96862191 310.32293582 C-207.97435029 310.32397888 -202.98019803 310.32977985 -197.98595619 310.34775543 C-193.28348931 310.36435369 -188.58123005 310.3663352 -183.87874413 310.35761642 C-182.16443191 310.35685234 -180.45010798 310.36110453 -178.73582458 310.37107468 C-147.08146677 310.5442054 -118.35751605 299.3353174 -95.25 277.625 C-94.14061309 276.4405418 -93.05996973 275.22887946 -92 274 C-91.24589844 273.12601562 -90.49179687 272.25203125 -89.71484375 271.3515625 C-73.12182929 251.3385145 -63.44712506 225.79371165 -63.85571289 199.75878906 C-63.86333649 198.70674789 -63.87096008 197.65470673 -63.8788147 196.57078552 C-63.89522579 194.3102945 -63.91557945 192.0498292 -63.93956184 189.78940582 C-63.99653582 183.7230092 -63.99549516 177.65646615 -64.00585938 171.58984375 C-64.02340706 163.89745294 -64.05779139 156.2060817 -64.1472168 148.51416016 C-64.21831847 142.26881096 -64.23586762 136.02529726 -64.21795464 129.77959442 C-64.22107221 127.40809064 -64.24390598 125.03652541 -64.28709602 122.6654129 C-64.61118499 104.14302822 -64.61118499 104.14302822 -60.63815308 98.85852051 C-57.82618076 96.79257686 -55.17814812 95.41251027 -52 94 C-50.36410591 92.81338637 -48.75379656 91.5895734 -47.1875 90.3125 C-46.46175781 89.74015625 -45.73601562 89.1678125 -44.98828125 88.578125 C-44.00408203 87.79695313 -44.00408203 87.79695313 -43 87 C-41.96875 86.195625 -40.9375 85.39125 -39.875 84.5625 C-22.54594936 69.11704182 -9.71913773 46.39710227 -4 24 C-3.73316406 22.97132813 -3.46632813 21.94265625 -3.19140625 20.8828125 C-1.4816047 13.92907412 -0.41543022 7.14826485 0 0 Z " fill="#FE3A55" transform="translate(511,137)"/>
<path d="M0 0 C1.77021893 -0.00463607 3.54043687 -0.00966177 5.31065369 -0.01504517 C10.09603967 -0.0280939 14.88141168 -0.03459915 19.66681266 -0.03905582 C22.66373424 -0.04199834 25.6606521 -0.04610527 28.65757179 -0.05056 C38.05537544 -0.06421417 47.45317045 -0.07389138 56.85098332 -0.07776189 C67.66055494 -0.08223975 78.46999994 -0.09978385 89.27953309 -0.12876248 C97.66206799 -0.15044678 106.04456742 -0.16046973 114.42713004 -0.16180301 C119.42140167 -0.16284607 124.41555393 -0.16864704 129.40979576 -0.18662262 C134.11226265 -0.20322088 138.81452191 -0.20520238 143.51700783 -0.19648361 C145.23132004 -0.19571953 146.94564398 -0.19997171 148.65992737 -0.20994186 C180.60593692 -0.38466776 209.43982153 11.03450217 232.64575195 33.03613281 C251.79989483 53.13362748 264.57180287 79.96362078 264.53619385 108.00758362 C264.54065053 109.12902194 264.54065053 109.12902194 264.54519725 110.27311558 C264.55380702 112.75606331 264.5553859 115.2389624 264.55688477 117.72192383 C264.56151848 119.51155193 264.56654388 121.30117906 264.57192993 123.09080505 C264.58500406 127.93829096 264.59148931 132.78576305 264.59594059 137.63326383 C264.59887985 140.6680318 264.60298628 143.70279608 264.60744476 146.73756218 C264.62110759 156.25070285 264.63077975 165.76383496 264.63464665 175.27698475 C264.63912223 186.22467703 264.65665205 197.17224414 264.68564725 208.11989838 C264.70733125 216.60430291 264.71735454 225.0886724 264.71868777 233.57310432 C264.71973115 238.63000338 264.72553853 243.68678459 264.74350739 248.74365425 C264.76010432 253.50683125 264.76208776 258.26980326 264.75336838 263.03299904 C264.75260414 264.76988528 264.7568586 266.50678309 264.76682663 268.2436409 C264.84139613 282.06001129 263.24403267 294.8678132 258.77075195 308.03613281 C258.51986816 308.77734375 258.26898438 309.51855469 258.01049805 310.28222656 C253.57525636 322.8015237 247.2627367 334.24591925 238.39575195 344.16113281 C237.7099707 344.97710937 237.02418945 345.79308594 236.31762695 346.63378906 C218.26501313 367.64105731 191.8637319 380.91144413 164.39575195 384.16113281 C158.44006285 384.4416827 152.49386993 384.43535681 146.53271484 384.41992188 C144.75895545 384.42263719 142.9851972 384.42620114 141.21144104 384.43054199 C136.42627892 384.43960466 131.64120374 384.43614698 126.85604024 384.42978382 C121.8279697 384.42469116 116.79990619 384.42942438 111.77183533 384.43255615 C103.32981034 384.43618666 94.88782043 384.43142113 86.44580078 384.421875 C76.7130305 384.41099576 66.98034406 384.41451589 57.24757582 384.42552781 C48.8633287 384.43463105 40.47910668 384.43587105 32.0948562 384.43065047 C27.09959601 384.42754698 22.10437511 384.42707649 17.10911751 384.43372345 C12.40993681 384.4395405 7.7108632 384.435421 3.01169395 384.42393494 C1.29654746 384.42131136 -0.41860818 384.42201357 -2.13375092 384.42646027 C-22.19673346 384.47364274 -40.557188 381.380576 -58.60424805 372.16113281 C-60.0409082 371.44957031 -60.0409082 371.44957031 -61.5065918 370.72363281 C-68.21277539 367.26237677 -73.89408913 363.07494627 -79.60424805 358.16113281 C-80.83981445 357.12666016 -80.83981445 357.12666016 -82.1003418 356.07128906 C-103.09940634 337.95509141 -116.38516011 311.67991974 -119.60424805 284.16113281 C-119.88370734 278.20537957 -119.87847209 272.25926853 -119.86303711 266.2980957 C-119.86575242 264.52433631 -119.86931637 262.75057805 -119.87365723 260.9768219 C-119.8827199 256.19165978 -119.87926222 251.4065846 -119.87289906 246.6214211 C-119.8678064 241.59335056 -119.87253961 236.56528705 -119.87567139 231.53721619 C-119.87930189 223.0951912 -119.87453637 214.65320129 -119.86499023 206.21118164 C-119.854111 196.47841136 -119.85763113 186.74572492 -119.86864305 177.01295668 C-119.87774629 168.62870956 -119.87898628 160.24448754 -119.87376571 151.86023706 C-119.87066221 146.86497687 -119.87019173 141.86975597 -119.87683868 136.87449837 C-119.88265573 132.17531767 -119.87853623 127.47624406 -119.86705017 122.77707481 C-119.86442659 121.06192832 -119.86512881 119.34677268 -119.8695755 117.63162994 C-119.94798082 84.29203688 -109.3071778 55.908386 -86.35424805 31.59863281 C-62.09135904 8.23229398 -32.87343742 0.02015952 0 0 Z M-39.79174805 38.34863281 C-40.45827393 38.64906494 -41.1247998 38.94949707 -41.81152344 39.2590332 C-47.99094081 42.15189064 -53.33678771 45.82767902 -58.60424805 50.16113281 C-59.36995117 50.7528125 -60.1356543 51.34449219 -60.92456055 51.95410156 C-76.01623191 64.28510133 -84.9114684 83.11600734 -87.60424805 102.16113281 C-88.11808101 108.11956713 -88.03614744 114.10461901 -88.02416992 120.08007812 C-88.03152758 121.83617181 -88.04011868 123.59226068 -88.04983521 125.3483429 C-88.07188253 130.07795401 -88.07499034 134.80739005 -88.07308769 139.53704548 C-88.0729672 143.50513591 -88.08156334 147.4731903 -88.08986521 151.44127059 C-88.10903931 160.81422486 -88.1120052 170.1870901 -88.10522461 179.56005859 C-88.09858987 189.18383322 -88.12143931 198.807224 -88.15853834 208.43092084 C-88.18937059 216.73462267 -88.20058074 225.03820189 -88.19670153 233.34195971 C-88.19464779 238.2832389 -88.19989807 243.2242192 -88.22459412 248.16544342 C-88.2470835 252.81804704 -88.24480197 257.47003254 -88.2246666 262.12264061 C-88.22129527 263.81473218 -88.2261747 265.50686722 -88.24065018 267.19890022 C-88.4089535 288.35805717 -82.5644836 307.87419133 -68.60424805 324.16113281 C-68.15823242 324.75023437 -67.7122168 325.33933594 -67.25268555 325.94628906 C-55.84174484 340.59366617 -35.6922396 349.89233908 -17.60424805 352.16113281 C-15.08971805 352.25632204 -12.57313156 352.30421591 -10.05682373 352.31503296 C-9.32920908 352.31941521 -8.60159443 352.32379747 -7.85193086 352.32831252 C-5.43049991 352.34159315 -3.00910526 352.34785513 -0.58764648 352.35400391 C1.15593628 352.36191371 2.89951744 352.37018319 4.64309692 352.37878418 C10.3575079 352.40491502 16.07192585 352.42030851 21.78637695 352.43457031 C23.76185866 352.43993472 25.73734033 352.44531224 27.71282196 352.45070267 C35.93970736 352.47232327 44.16659088 352.49105395 52.39349747 352.50232506 C64.13662109 352.51852514 75.87941185 352.55161638 87.62241006 352.60872591 C95.90388353 352.64760994 104.18526869 352.66697978 112.46683097 352.67224562 C117.39989637 352.67587548 122.33260606 352.68764116 127.26557159 352.72034836 C131.91804312 352.75075373 136.56994976 352.75662713 141.22249985 352.7449646 C142.91418201 352.74474651 144.60589292 352.75282709 146.29748154 352.77061844 C167.81918264 352.98433541 187.8133166 347.37464883 204.39575195 333.16113281 C204.98485352 332.71511719 205.57395508 332.26910156 206.1809082 331.80957031 C221.14774374 320.14975766 230.35404476 299.51042855 232.67901421 280.89286518 C233.10169134 275.50664573 233.05717321 270.12337601 233.01098633 264.72460938 C233.01449928 262.96143563 233.02017098 261.1982651 233.02780151 259.43510437 C233.04188638 254.70582567 233.02515281 249.97713984 233.00151634 245.24791813 C232.98120453 240.26706888 232.98729714 235.28623942 232.98962402 230.30535889 C232.98957069 221.95038233 232.96995204 213.59563372 232.93774414 205.24072266 C232.90081351 195.61458806 232.89207787 185.988751 232.89904165 176.36255479 C232.90536929 167.0528175 232.89455373 157.74318096 232.87507629 148.43346405 C232.8669535 144.49284161 232.86418319 140.55227102 232.86576843 136.61164093 C232.86665416 131.96565034 232.85224808 127.31993787 232.8265419 122.67402077 C232.81944542 120.98026441 232.81726456 119.28647832 232.82065964 117.59271049 C232.84184837 104.51896322 231.76961899 92.03831537 226.20825195 79.97363281 C225.90854492 79.30783203 225.60883789 78.64203125 225.30004883 77.95605469 C222.4110244 71.77890349 218.71662703 66.43260041 214.39575195 61.16113281 C213.8543457 60.45730469 213.31293945 59.75347656 212.75512695 59.02832031 C200.50940479 43.86978075 180.34755942 34.27808194 161.12748432 31.87787056 C155.74126487 31.45519343 150.35799515 31.49971156 144.95922852 31.54589844 C143.19605477 31.54238548 141.43288424 31.53671379 139.66972351 31.52908325 C134.94044481 31.51499838 130.21175898 31.53173195 125.48253727 31.55536842 C120.50168802 31.57568024 115.52085856 31.56958763 110.53997803 31.56726074 C102.18500147 31.56731408 93.83025286 31.58693272 85.4753418 31.61914062 C75.8492072 31.65607126 66.22337014 31.66480689 56.59717393 31.65784311 C47.28743664 31.65151548 37.97780011 31.66233103 28.66808319 31.68180847 C24.72746075 31.68993127 20.78689016 31.69270157 16.84626007 31.69111633 C12.20026949 31.6902306 7.55455701 31.70463668 2.90863991 31.73034286 C1.21488355 31.73743935 -0.47890254 31.7396202 -2.17267036 31.73622513 C-15.24603251 31.71503702 -27.7276358 32.78665939 -39.79174805 38.34863281 Z " fill="#FEFEFE" transform="translate(183.604248046875,63.8388671875)"/>
<path d="M0 0 C4.61717626 3.71043417 8.84492723 7.78584337 13 12 C13.74894531 12.73863281 14.49789062 13.47726563 15.26953125 14.23828125 C25.3888935 24.83666657 31.69543983 38.14290338 36 52 C36.3403125 53.08152344 36.680625 54.16304688 37.03125 55.27734375 C41.33709261 71.7232704 40.42415204 89.97570769 35 106 C34.62617188 107.1240625 34.25234375 108.248125 33.8671875 109.40625 C29.30974993 122.08256643 23.02297728 132.99825908 14 143 C13.30132812 143.78117188 12.60265625 144.56234375 11.8828125 145.3671875 C-3.8693051 162.04250613 -27.65972724 173.41404531 -50.6640625 174.3359375 C-62.80032695 174.51859706 -73.44670665 173.82176407 -85 170 C-86.17433594 169.649375 -87.34867187 169.29875 -88.55859375 168.9375 C-103.92624466 164.00340472 -115.78327675 155.37622163 -127 144 C-127.74894531 143.26136719 -128.49789062 142.52273438 -129.26953125 141.76171875 C-146.73472111 123.46977435 -153.85708867 97.90471846 -153.37109375 73.16796875 C-152.6681191 57.28474433 -148.20907542 42.56606642 -140 29 C-139.32066406 27.87335938 -138.64132813 26.74671875 -137.94140625 25.5859375 C-124.04187633 4.21381626 -102.69645301 -10.809843 -77.8125 -16.4375 C-51.13977473 -21.83048039 -22.01918387 -16.28319554 0 0 Z " fill="#FEFDFD" transform="translate(313,178)"/>
<path d="M0 0 C0.33 0 0.66 0 1 0 C1.0917689 33.1641885 1.16214662 66.32834378 1.20426132 99.4926305 C1.20926351 103.41745049 1.21444086 107.34227023 1.21972656 111.26708984 C1.2207758 112.04837532 1.22182505 112.8296608 1.22290608 113.63462159 C1.24026084 126.24704229 1.271771 138.85938926 1.30861118 151.47176638 C1.34615844 164.43536062 1.36826481 177.39891652 1.37635398 190.36256289 C1.38181335 198.3470567 1.39898819 206.33134205 1.43166587 214.31577161 C1.45552259 220.46197513 1.45778541 226.60802326 1.45243073 232.75426674 C1.45352233 235.25824317 1.46135945 237.76222822 1.4768219 240.26615715 C1.58238134 258.25744977 0.4659447 275.8209261 -6.1875 292.75 C-6.48229248 293.52037598 -6.77708496 294.29075195 -7.08081055 295.08447266 C-16.95288452 319.97304247 -35.12044884 342.03674451 -58 356 C-59.0725 356.68320312 -60.145 357.36640625 -61.25 358.0703125 C-88.13159805 374.43572983 -122.0073097 379.95321643 -152.72265625 372.83984375 C-154.34494141 372.42412109 -154.34494141 372.42412109 -156 372 C-157.51400391 371.69255859 -157.51400391 371.69255859 -159.05859375 371.37890625 C-182.96200404 366.26808413 -204.39965514 351.4516446 -221 334 C-221.66515625 333.30648438 -222.3303125 332.61296875 -223.015625 331.8984375 C-238 315.84375 -238 315.84375 -238 311 C-236.64055519 310.99120064 -236.64055519 310.99120064 -235.25364685 310.98222351 C-226.64920807 310.92395509 -218.04501951 310.85168769 -209.44082546 310.76428509 C-205.01891899 310.71984465 -200.59709911 310.6805332 -196.17504883 310.65356445 C-191.89545221 310.6272654 -187.61619366 310.58668284 -183.33680916 310.53681374 C-181.71646441 310.52032257 -180.09606144 310.50869923 -178.47564507 310.50238609 C-146.90543701 310.36712874 -118.31621721 299.2965157 -95.25 277.625 C-94.14061309 276.4405418 -93.05996973 275.22887946 -92 274 C-91.24589844 273.12601562 -90.49179687 272.25203125 -89.71484375 271.3515625 C-73.12182929 251.3385145 -63.44712506 225.79371165 -63.85571289 199.75878906 C-63.86333649 198.70674789 -63.87096008 197.65470673 -63.8788147 196.57078552 C-63.89522579 194.3102945 -63.91557945 192.0498292 -63.93956184 189.78940582 C-63.99653582 183.7230092 -63.99549516 177.65646615 -64.00585938 171.58984375 C-64.02340706 163.89745294 -64.05779139 156.2060817 -64.1472168 148.51416016 C-64.21831847 142.26881096 -64.23586762 136.02529726 -64.21795464 129.77959442 C-64.22107221 127.40809064 -64.24390598 125.03652541 -64.28709602 122.6654129 C-64.61118499 104.14302822 -64.61118499 104.14302822 -60.63815308 98.85852051 C-57.82618076 96.79257686 -55.17814812 95.41251027 -52 94 C-50.36410591 92.81338637 -48.75379656 91.5895734 -47.1875 90.3125 C-46.09888672 89.45398438 -46.09888672 89.45398438 -44.98828125 88.578125 C-44.00408203 87.79695313 -44.00408203 87.79695313 -43 87 C-41.96875 86.195625 -40.9375 85.39125 -39.875 84.5625 C-22.54594936 69.11704182 -9.71913773 46.39710227 -4 24 C-3.73316406 22.97132813 -3.46632813 21.94265625 -3.19140625 20.8828125 C-1.4816047 13.92907412 -0.41543022 7.14826485 0 0 Z " fill="#E00047" transform="translate(511,137)"/>
<path d="M0 0 C0.11656689 12.07548416 0.20505362 24.15083142 0.25906086 36.22676659 C0.28499993 41.83595222 0.32010676 47.444749 0.37719727 53.05371094 C0.43208228 58.48081838 0.46153803 63.90755512 0.47438622 69.33491898 C0.48352581 71.39108733 0.50136869 73.44723863 0.52865028 75.50324631 C0.81770047 98.21913717 -3.86327927 118.34049248 -19 136 C-19.44601562 136.58910156 -19.89203125 137.17820312 -20.3515625 137.78515625 C-32.15502919 152.93638981 -51.57962964 160.75060199 -70 164 C-76.87161434 164.74619252 -83.76739569 164.59023738 -90.66796875 164.48828125 C-92.56894486 164.47892234 -94.46993327 164.47182086 -96.3709259 164.46684265 C-101.3046266 164.44801448 -106.2375571 164.39913161 -111.17095947 164.34332275 C-116.2330077 164.29159918 -121.29518393 164.2692168 -126.35742188 164.24414062 C-136.2386143 164.19098178 -146.11924241 164.10597391 -156 164 C-162.66499369 144.60307249 -162.47947584 119.43842753 -156 100 C-154.87464844 99.84144531 -153.74929688 99.68289063 -152.58984375 99.51953125 C-125.82575694 95.54187872 -101.85242543 84.68695867 -84.73046875 63.14453125 C-72.40912439 46.24728729 -67.13409946 28.40498794 -64 8 C-53.88639721 4.42460117 -43.53973403 4.08457568 -32.9375 3.4375 C-29.40436571 3.21526013 -25.87185155 2.98558231 -22.33984375 2.74609375 C-21.50528656 2.68964691 -20.67072937 2.63320007 -19.81088257 2.57504272 C-14.70441901 2.20207312 -9.76709202 1.59400093 -4.77954102 0.38696289 C-3 0 -3 0 0 0 Z " fill="#E00047" transform="translate(416,252)"/>
<path d="M0 0 C0.73240377 -0.00438225 1.46480753 -0.00876451 2.21940535 -0.01327956 C4.65698979 -0.02656123 7.09453818 -0.03282238 9.53215027 -0.03897095 C11.28720763 -0.04688059 13.0422634 -0.05515007 14.7973175 -0.06375122 C20.54900072 -0.08988132 26.30069086 -0.10527432 32.05241394 -0.11953735 C34.0403004 -0.12490158 36.02818683 -0.13027909 38.01607323 -0.13566971 C46.29357302 -0.15728918 54.57107095 -0.17602054 62.8485918 -0.1872921 C74.6672897 -0.20349713 86.48565713 -0.23660183 98.30423051 -0.29369295 C106.63749261 -0.33255897 114.97066697 -0.35194466 123.30401725 -0.35721266 C128.26890773 -0.36084463 133.23344505 -0.37263357 138.19823647 -0.4053154 C142.87943111 -0.43568915 147.5600643 -0.44160503 152.24133682 -0.42993164 C153.94472678 -0.4297133 155.64814506 -0.43781554 157.35144234 -0.45558548 C178.55484128 -0.66446909 198.08371176 5.16175364 214.40788269 19.15390015 C214.99698425 19.59991577 215.58608582 20.0459314 216.19303894 20.50546265 C223.20102882 25.96499007 229.41432184 34.25996153 233.40788269 42.15390015 C233.07788269 43.14390015 232.74788269 44.13390015 232.40788269 45.15390015 C224.83993445 48.47641401 216.51777705 48.29737451 208.40788269 48.21640015 C207.5377655 48.21188843 206.66764832 48.20737671 205.77116394 48.20272827 C203.65003976 48.19107374 201.52895159 48.17314372 199.40788269 48.15390015 C199.89385925 49.21866577 200.37983582 50.2834314 200.88053894 51.38046265 C203.47230845 57.45592471 203.21807969 62.77005667 200.78288269 68.90390015 C198.16557417 74.18459656 194.98144132 76.95290612 189.59538269 79.46640015 C182.83912776 80.9236316 177.31270524 80.87943721 171.19694519 77.41952515 C166.46033566 74.06873587 163.63844938 69.85925481 162.40788269 64.15390015 C161.76444088 57.88034247 162.83992971 53.9726414 165.40788269 48.15390015 C150.52330575 48.19144541 135.63894325 48.2518459 120.75456715 48.33780289 C113.83993063 48.37722959 106.92540192 48.40980295 100.01066589 48.42489624 C93.31254419 48.43953763 86.61477009 48.47505597 79.91679955 48.52220917 C77.38695409 48.53681847 74.85706073 48.54492909 72.32717323 48.545784 C31.18142026 48.573619 -8.19173716 56.61384573 -44.59211731 76.15390015 C-45.32027649 76.53804077 -46.04843567 76.9221814 -46.79866028 77.31796265 C-56.37815474 82.38453255 -65.3778681 87.83219303 -74.06477356 94.31796265 C-76.59211731 96.15390015 -76.59211731 96.15390015 -77.59211731 96.15390015 C-78.1527017 70.66599643 -76.27102999 49.50217362 -59.59211731 29.15390015 C-58.78000793 28.09815796 -58.78000793 28.09815796 -57.95149231 27.02108765 C-44.26439304 10.07831914 -21.47806902 0.09171581 0 0 Z " fill="#FF796C" transform="translate(173.5921173095703,95.84609985351563)"/>
<path d="M0 0 C13.46258069 10.17902443 22.50063715 25.31729647 25.5625 41.9375 C27.56222366 60.95649894 23.19289681 77.74548249 11.2421875 92.875 C3.11763335 102.24752641 -5.89809848 108.46270367 -17.4375 112.9375 C-18.241875 113.25847656 -19.04625 113.57945312 -19.875 113.91015625 C-36.75871956 119.58203079 -54.64310981 115.94056024 -70.1875 108.3125 C-86.7093022 98.60842943 -95.77263797 83.83944495 -101.4375 65.9375 C-104.81150379 47.71787952 -101.78001368 30.48957613 -91.4375 14.9375 C-69.13912293 -14.35783215 -30.57715613 -20.62180297 0 0 Z " fill="#FE3A55" transform="translate(294.4375,204.0625)"/>
<path d="M0 0 C33.29972073 0.73113159 62.83383589 18.68570884 85.34765625 41.9765625 C108.76968496 67.11567707 118.1748355 100.41718556 117.12548828 134.11230469 C115.64713271 168.13173979 100.53883212 198.65818408 76 222 C74.95972656 222.99773437 74.95972656 222.99773437 73.8984375 224.015625 C57.84375 239 57.84375 239 53 239 C52.99191315 238.08482101 52.98382629 237.16964203 52.97549438 236.22673035 C52.89724857 227.5622317 52.80986965 218.89788213 52.71247292 210.23357677 C52.66272728 205.78017929 52.61639705 201.32680306 52.578125 196.87329102 C52.54099549 192.56784392 52.49456428 188.26258473 52.44193649 183.95730019 C52.42353835 182.32247559 52.40837786 180.68761094 52.39665604 179.05272484 C52.33094982 170.19767649 52.03282529 161.66766601 50 153 C49.85009109 152.32725037 49.70018219 151.65450073 49.54573059 150.96136475 C47.73411854 143.16389213 45.32774879 135.84341155 41.953125 128.5859375 C40.92025874 125.78365282 40.59084362 123.95664192 41 121 C42.25 119.32421875 42.25 119.32421875 44 117.6875 C55.5164487 105.23665384 60.65543951 87.18181989 60.2644043 70.51220703 C60.19262078 68.67409326 60.09721425 66.83694434 60 65 C59.979375 64.17113281 59.95875 63.34226563 59.9375 62.48828125 C58.9727445 46.17788353 49.17385347 31.23266322 38 20 C37.40960938 19.37480469 36.81921875 18.74960937 36.2109375 18.10546875 C26.5630477 8.6913384 12.84648165 4.05103939 0 1 C0 0.67 0 0.34 0 0 Z " fill="#FE3A55" transform="translate(395,0)"/>
<path d="M0 0 C4.46341087 3.02306065 7.39332313 7.3440319 9.08203125 12.41015625 C9.90641126 19.14034058 8.69770022 24.6630281 5.08203125 30.41015625 C1.25577221 34.82755081 -3.25203526 36.96642128 -9.015625 37.6640625 C-14.81749896 37.97256695 -19.16336961 36.7736718 -23.91796875 33.41015625 C-28.95929958 28.85504514 -30.93799345 23.71098206 -31.29296875 17.03515625 C-31.14415928 12.1161764 -29.90051826 8.34282541 -26.91796875 4.41015625 C-18.78875211 -3.1138672 -10.14292961 -4.95600238 0 0 Z " fill="#FFFCFC" transform="translate(366.91796875,138.58984375)"/>
<path d="M0 0 C1.37671347 4.13014042 0.1331937 5.56313131 -1.75 9.4375 C-8.77382003 23.34556996 -21.01787266 35.06723415 -36 40 C-36.99 40 -37.98 40 -39 40 C-36.81848529 33.59396473 -32.32265733 29.08252744 -28 24 C-27.41863281 23.28199219 -26.83726562 22.56398438 -26.23828125 21.82421875 C-18.91818643 12.97984268 -9.45762967 6.38030982 0 0 Z " fill="#E00449" transform="translate(315,276)"/>
</svg>
