<?xml version="1.0" encoding="UTF-8"?>
<svg version="1.1" xmlns="http://www.w3.org/2000/svg" width="512" height="512">
<path d="M0 0 C3.48209317 0.00478262 6.96413382 -0.00782269 10.44620943 -0.01801741 C17.24734619 -0.03511307 24.04839018 -0.03606464 30.84954283 -0.03080451 C36.38484915 -0.02674369 41.92012832 -0.02822891 47.45543337 -0.03355277 C48.24679511 -0.03430119 49.03815685 -0.03504961 49.85349925 -0.03582071 C51.46177608 -0.03735238 53.07005291 -0.03889073 54.67832974 -0.04043568 C69.72213716 -0.05412771 84.76589241 -0.04874665 99.80969861 -0.03725047 C113.53012424 -0.02732494 127.25041487 -0.04025286 140.97081968 -0.06418466 C155.10563188 -0.08865088 169.24038141 -0.09816492 183.37521434 -0.09153193 C191.29210524 -0.08805592 199.2088925 -0.09016367 207.12576723 -0.10778296 C213.86618255 -0.12259964 220.60642124 -0.12301839 227.34683344 -0.10571205 C230.77628414 -0.09727601 234.20542062 -0.09486733 237.63485384 -0.1103636 C256.2259315 -0.17678101 274.3338109 0.71495553 291.83774996 7.59433305 C292.60812593 7.88912553 293.37850191 8.18391801 294.17222261 8.4876436 C325.37503496 20.86426764 350.65048267 45.68840576 364.20884371 76.31210649 C365.74160768 79.96519395 367.11248745 83.66083623 368.40024996 87.40683305 C368.63075045 88.06925004 368.86125093 88.73166704 369.09873629 89.41415727 C374.33453998 105.60034731 374.53369363 121.45944698 374.49458301 138.31908309 C374.48980039 141.80117627 374.5024057 145.28321691 374.51260042 148.76529253 C374.52969608 155.56642928 374.53064765 162.36747328 374.52538752 169.16862592 C374.5213267 174.70393225 374.52281192 180.23921141 374.52813578 185.77451646 C374.5288842 186.5658782 374.52963262 187.35723994 374.53040372 188.17258234 C374.53193539 189.78085918 374.53347374 191.38913601 374.53501869 192.99741283 C374.54871072 208.04122025 374.54332966 223.08497551 374.53183348 238.12878171 C374.52190795 251.84920733 374.53483587 265.56949796 374.55876767 279.28990278 C374.58323389 293.42471498 374.59274793 307.55946451 374.58611494 321.69429743 C374.58263893 329.61118834 374.58474668 337.52797559 374.60236597 345.44485033 C374.61718265 352.18526564 374.6176014 358.92550433 374.60029506 365.66591653 C374.59185902 369.09536723 374.58945034 372.52450372 374.60494661 375.95393693 C374.67136403 394.5450146 373.77962748 412.652894 366.90024996 430.15683305 C366.60545748 430.92720903 366.310665 431.69758501 366.00693941 432.49130571 C356.13486544 457.37987552 337.96730112 479.44357757 315.08774996 493.40683305 C314.01524996 494.09003618 312.94274996 494.7732393 311.83774996 495.47714555 C305.45004956 499.3659539 298.94823783 502.48484403 291.96274996 505.15683305 C291.27874117 505.42640825 290.59473238 505.69598344 289.88999605 505.97372758 C271.57496724 512.61625088 252.95550458 512.98750368 233.69712496 512.92441118 C230.88921006 512.92764626 228.08132106 512.93682879 225.2734189 512.94565141 C218.48616735 512.96329401 211.69909425 512.95966107 204.91183615 512.94800085 C199.38806192 512.93890996 193.86433716 512.93776673 188.34055758 512.94209611 C187.54973779 512.94270905 186.75891801 512.94332198 185.944134 512.94395348 C184.33682329 512.94523258 182.7295126 512.94652944 181.12220192 512.94784385 C166.10506253 512.95920786 151.08802133 512.94620193 136.07089806 512.92464238 C123.22881 512.90677521 110.38686666 512.9098805 97.54478121 512.92831743 C82.57569806 512.94979842 67.60670065 512.95810962 52.63760424 512.94586837 C51.03671695 512.94459438 49.43582965 512.9433369 47.83494234 512.94209611 C47.04759258 512.94147901 46.26024282 512.94086191 45.44903398 512.94022611 C39.94182532 512.93679481 34.43467175 512.94255319 28.92747164 512.95201433 C22.20178323 512.96331652 15.47628117 512.96002387 8.75061369 512.93889135 C5.32917146 512.92848977 1.90829014 512.92627884 -1.51318693 512.93748796 C-22.88729031 513.00100847 -42.22548579 511.05828192 -61.91225004 502.40683305 C-62.56644926 502.12356157 -63.22064848 501.84029008 -63.89467192 501.54843462 C-93.98974488 488.26256094 -117.69643593 462.6852702 -129.78334379 432.21054399 C-130.63388989 429.95385314 -131.44074075 427.68745259 -132.22475004 425.40683305 C-132.57050077 424.41320756 -132.57050077 424.41320756 -132.92323637 423.39950883 C-138.15904006 407.2133188 -138.35819372 391.35421913 -138.31908309 374.49458301 C-138.31430048 371.01248984 -138.32690578 367.53044919 -138.33710051 364.04837358 C-138.35419617 357.24723682 -138.35514773 350.44619283 -138.3498876 343.64504018 C-138.34582678 338.10973386 -138.347312 332.5744547 -138.35263586 327.03914964 C-138.35338428 326.2477879 -138.3541327 325.45642616 -138.35490381 324.64108376 C-138.35643548 323.03280693 -138.35797382 321.4245301 -138.35951877 319.81625327 C-138.3732108 304.77244585 -138.36782974 289.7286906 -138.35633356 274.6848844 C-138.34640804 260.96445877 -138.35933595 247.24416814 -138.38326775 233.52376333 C-138.40773398 219.38895113 -138.41724801 205.2542016 -138.41061503 191.11936867 C-138.40713902 183.20247777 -138.40924677 175.28569051 -138.42686605 167.36881578 C-138.44168273 160.62840046 -138.44210148 153.88816178 -138.42479514 147.14774957 C-138.41635911 143.71829887 -138.41395042 140.28916239 -138.4294467 136.85972917 C-138.49586411 118.26865151 -137.60412757 100.16077211 -130.72475004 82.65683305 C-130.42995756 81.88645708 -130.13516508 81.1160811 -129.8314395 80.3223604 C-117.45481545 49.11954805 -92.63067734 23.84410034 -62.0069766 10.2857393 C-58.35388915 8.75297533 -54.65824686 7.38209556 -50.91225004 6.09433305 C-49.91862455 5.74858232 -49.91862455 5.74858232 -48.90492582 5.39584672 C-32.71873579 0.16004303 -16.85963612 -0.03911062 0 0 Z " fill="#31B3FE" transform="translate(137.91225004196167,-0.40683305263519287)"/>
<path d="M0 0 C0.33 0 0.66 0 1 0 C1.09176643 33.41897614 1.16214537 66.83792067 1.20426132 100.25699504 C1.20926351 104.21185757 1.21444086 108.16671986 1.21972656 112.12158203 C1.22130043 113.30248209 1.22130043 113.30248209 1.22290608 114.50723872 C1.24026142 127.21665701 1.27177191 139.92600215 1.30861118 152.6353772 C1.3461568 165.69841256 1.36826447 178.76140989 1.37635398 191.82449698 C1.38181368 199.87040902 1.39899039 207.91611421 1.43166587 215.96196249 C1.4555201 222.1551678 1.45778581 228.34821889 1.45243073 234.54146385 C1.45352245 237.06479087 1.46136116 239.58812644 1.4768219 242.11140633 C1.58188305 260.15793653 0.48678451 277.76790114 -6.1875 294.75 C-6.48229248 295.52037598 -6.77708496 296.29075195 -7.08081055 297.08447266 C-16.95288452 321.97304247 -35.12044884 344.03674451 -58 358 C-59.0725 358.68320312 -60.145 359.36640625 -61.25 360.0703125 C-67.6377004 363.95912084 -74.13951213 367.07801098 -81.125 369.75 C-81.80900879 370.0195752 -82.49301758 370.28915039 -83.19775391 370.56689453 C-101.51278272 377.20941783 -120.13224538 377.58067063 -139.390625 377.51757812 C-142.1985399 377.5208132 -145.0064289 377.52999573 -147.81433105 377.53881836 C-154.60158261 377.55646096 -161.3886557 377.55282802 -168.17591381 377.5411678 C-173.69968804 377.53207691 -179.22341279 377.53093368 -184.74719238 377.53526306 C-185.53801216 377.53587599 -186.32883194 377.53648893 -187.14361596 377.53712043 C-188.75092667 377.53839953 -190.35823736 377.53969639 -191.96554804 377.5410108 C-206.98268743 377.55237481 -221.99972862 377.53936888 -237.0168519 377.51780933 C-249.85893996 377.49994216 -262.7008833 377.50304745 -275.54296875 377.52148438 C-290.51205189 377.54296537 -305.48104931 377.55127657 -320.45014572 377.53903532 C-322.05103301 377.53776133 -323.65192031 377.53650384 -325.25280762 377.53526306 C-326.04015738 377.53464596 -326.82750714 377.53402886 -327.63871598 377.53339306 C-333.14592464 377.52996175 -338.6530782 377.53572014 -344.16027832 377.54518127 C-350.88596672 377.55648346 -357.61146879 377.55319082 -364.33713627 377.5320583 C-367.7585785 377.52165672 -371.17945982 377.51944578 -374.60093689 377.53065491 C-395.97504027 377.59417542 -415.31323575 375.65144887 -435 367 C-435.65419922 366.71672852 -436.30839844 366.43345703 -436.98242188 366.14160156 C-467.07749484 352.85572789 -490.78418589 327.27843714 -502.87109375 296.80371094 C-504.83027666 291.60555629 -506.49535482 286.34618859 -508 281 C-508.34160156 279.78699219 -508.68320312 278.57398438 -509.03515625 277.32421875 C-513.58586616 257.61858652 -511.67737067 235.89328902 -509 216 C-508.90879883 215.24702637 -508.81759766 214.49405273 -508.72363281 213.71826172 C-505.38402248 186.30416219 -495.94501405 160.27573759 -483 136 C-482.65888184 135.35111816 -482.31776367 134.70223633 -481.96630859 134.03369141 C-473.48436653 117.99029749 -463.01282789 103.57105292 -451 90 C-450.21753906 89.10667969 -449.43507813 88.21335937 -448.62890625 87.29296875 C-440.39117799 77.99875541 -431.75644597 69.69083358 -422 62 C-421.00097656 61.195625 -420.00195312 60.39125 -418.97265625 59.5625 C-410.7337692 52.99997347 -402.05391854 47.36901354 -393 42 C-392.31341309 41.5875 -391.62682617 41.175 -390.91943359 40.75 C-366.62907566 26.25843246 -340.25286141 17.20879587 -312.5 12.125 C-311.39172852 11.92156982 -310.28345703 11.71813965 -309.14160156 11.50854492 C-291.84520086 8.55453275 -274.42405826 8.86343829 -256.9375 8.90234375 C-254.44930042 8.90421263 -251.96110047 8.90563431 -249.47290039 8.90663147 C-242.97606358 8.91041962 -236.47924972 8.9202176 -229.98242188 8.93133545 C-223.33203399 8.94162985 -216.68164378 8.94614617 -210.03125 8.95117188 C-197.02082364 8.96184378 -184.01041305 8.97867811 -171 9 C-174.58285907 11.81211016 -178.27430646 13.51514617 -182.48046875 15.1953125 C-183.60181717 15.65172371 -183.60181717 15.65172371 -184.74581909 16.11735535 C-186.36956141 16.77753236 -187.99438324 17.43505905 -189.62014771 18.09024048 C-193.1402455 19.50899969 -196.65502535 20.94072223 -200.17021179 22.37159729 C-202.01395009 23.12195626 -203.85795878 23.87165114 -205.70222473 24.62071228 C-214.33699615 28.12929678 -222.94845044 31.69284353 -231.55490112 35.27023315 C-235.81583064 37.04126025 -240.07787526 38.80959999 -244.33984375 40.578125 C-245.20273514 40.93623764 -246.06562653 41.29435028 -246.95466614 41.66331482 C-257.34074289 45.9727999 -267.73221874 50.26921265 -278.125 54.5625 C-279.09159546 54.96181732 -280.05819092 55.36113464 -281.05407715 55.77255249 C-295.09712179 61.57287034 -309.15058597 67.34736901 -323.2102356 73.1072998 C-337.19251189 78.83665753 -351.15603156 84.61046102 -365.109375 90.40991211 C-374.52776748 94.32332835 -383.95414304 98.21632527 -393.390625 102.0859375 C-396.51515611 103.36922679 -399.63954271 104.65286728 -402.7638855 105.93661499 C-404.76917141 106.75940911 -406.7751154 107.58060151 -408.7817688 108.40005493 C-427.110708 114.34553828 -427.110708 114.34553828 -441.75 125.375 C-443.62417811 130.81011653 -443.83475441 134.71540898 -441.8125 140.25 C-438.34280645 145.51436263 -434.4653324 147.47600321 -428.4375 148.9375 C-427.7969165 149.09734375 -427.15633301 149.2571875 -426.49633789 149.421875 C-425.09138878 149.77107141 -423.68497418 150.11441087 -422.27734375 150.45263672 C-418.15774097 151.44278996 -414.04860328 152.4752439 -409.9375 153.5 C-408.65178101 153.81783447 -408.65178101 153.81783447 -407.34008789 154.14208984 C-402.48515415 155.3492124 -397.67370659 156.64457395 -392.875 158.0625 C-373.82015091 163.53546369 -354.80392803 168.49679663 -336.28540039 158.54052734 C-329.1754027 154.38968588 -322.28686684 149.96266394 -315.46984863 145.35058594 C-312.51711424 143.35373355 -309.55597331 141.36945867 -306.59375 139.38671875 C-306.01659241 139.00035248 -305.43943481 138.61398621 -304.8447876 138.21591187 C-299.74922586 134.81431777 -294.5790592 131.55050748 -289.36328125 128.33789062 C-284.46836057 125.31639907 -279.67958468 122.15593587 -274.90527344 118.94799805 C-269.80069527 115.52186322 -264.65767748 112.15810236 -259.5 108.8125 C-258.24449341 107.99773193 -258.24449341 107.99773193 -256.96362305 107.16650391 C-255.21525335 106.03209697 -253.46679766 104.89782256 -251.71826172 103.76367188 C-246.99714166 100.70049859 -242.27903165 97.63273259 -237.5625 94.5625 C-236.61068848 93.9447168 -235.65887695 93.32693359 -234.67822266 92.69042969 C-229.76462416 89.49230821 -224.88568435 86.25358954 -220.05078125 82.9375 C-219.09679443 82.2870874 -218.14280762 81.6366748 -217.15991211 80.96655273 C-215.34534778 79.72592968 -213.5371887 78.47586929 -211.73657227 77.21508789 C-210.92373779 76.66071045 -210.11090332 76.10633301 -209.2734375 75.53515625 C-208.56622559 75.044104 -207.85901367 74.55305176 -207.13037109 74.04711914 C-204.54485742 72.7762885 -202.84710749 72.65774572 -200 73 C-198 75 -198 75 -197.9296875 77.1953125 C-199.56914329 81.49140469 -202.72265948 83.8817195 -206.125 86.875 C-207.44126907 88.05860164 -208.75637707 89.24349579 -210.0703125 90.4296875 C-210.72265869 91.01500244 -211.37500488 91.60031738 -212.04711914 92.20336914 C-214.60383383 94.55552108 -217.03988072 97.01577944 -219.48144531 99.48632812 C-221.18777575 101.18717196 -222.96571944 102.76587339 -224.8125 104.3125 C-228.02333755 107.07618029 -231.02267165 109.98619596 -234 113 C-237.54232199 116.58558699 -241.17555661 119.94891662 -245.00390625 123.22265625 C-247.26132626 125.23268777 -249.37735713 127.34832953 -251.5 129.5 C-254.22829407 132.26560408 -256.98516834 134.91287031 -259.9375 137.4375 C-263.1103592 140.15619248 -266.06338382 143.02751675 -269 146 C-272.51847524 149.56138347 -276.12570412 152.89888084 -279.9296875 156.1484375 C-283.32509215 159.18508241 -286.47508424 162.46410256 -289.66796875 165.7109375 C-291.53099265 167.53963433 -293.37428939 169.16291491 -295.4375 170.75 C-299.56843429 174.37716181 -300.82479292 177.44816587 -301.4375 182.875 C-301.18559708 188.23666167 -299.15767918 192.95108871 -295.24194336 196.66943359 C-293.12771652 198.28460725 -290.96653964 199.77846851 -288.75 201.25 C-287.1174805 202.38005404 -285.48598898 203.51159443 -283.85546875 204.64453125 C-283.03739746 205.2060791 -282.21932617 205.76762695 -281.37646484 206.34619141 C-277.86944135 208.78676847 -274.4650157 211.35419642 -271.0625 213.9375 C-262.897572 220.09659603 -254.66339494 226.15973655 -246.42333984 232.21777344 C-243.2367535 234.56132374 -240.05234918 236.90782733 -236.86816406 239.25463867 C-235.28823331 240.41906392 -233.70815495 241.58328891 -232.12792969 242.74731445 C-228.15493656 245.67394442 -224.18346582 248.60260113 -220.21484375 251.53515625 C-216.27715233 254.4440525 -212.33508166 257.34690688 -208.38916016 260.24462891 C-206.75757381 261.44339304 -205.1270877 262.64365572 -203.49755859 263.84521484 C-201.04406544 265.65237556 -198.58525206 267.45205575 -196.125 269.25 C-195.3817749 269.79922119 -194.6385498 270.34844238 -193.87280273 270.91430664 C-186.34306844 276.39276852 -180.40401529 278.14483664 -171 277 C-163.59485322 274.55519029 -159.23558668 271.05562474 -155.4768219 264.23677063 C-153.97153358 260.93760977 -153.33002358 258.2263179 -152.80834961 254.64916992 C-152.62027237 253.39564728 -152.43219513 252.14212463 -152.23841858 250.85061646 C-152.04290945 249.47725535 -151.84755618 248.10387206 -151.65234375 246.73046875 C-151.43811182 245.2784963 -151.22291328 243.82666618 -151.00682068 242.37496948 C-150.54623418 239.26822675 -150.09190118 236.16065935 -149.64251709 233.05227661 C-148.93513896 228.16080015 -148.21343616 223.2715097 -147.48876953 218.38256836 C-146.74171145 213.33908341 -145.9951841 208.29552745 -145.25317383 203.251297 C-142.90296594 187.27907252 -140.4854305 171.3175158 -138.03421021 155.36050415 C-137.48649043 151.7935305 -136.94304767 148.22591978 -136.40076923 144.65811539 C-135.90282887 141.38752615 -135.40034702 138.11763869 -134.8984375 134.84765625 C-134.63044594 133.07791946 -134.63044594 133.07791946 -134.35704041 131.27243042 C-134.19200516 130.20421051 -134.02696991 129.1359906 -133.85693359 128.03540039 C-133.71468353 127.10530655 -133.57243347 126.17521271 -133.4258728 125.2169342 C-133 123 -133 123 -132 121 C-130.20369141 120.94392578 -130.20369141 120.94392578 -128.37109375 120.88671875 C-117.93684584 120.49252648 -108.17641095 119.46088442 -98 117 C-97.0615625 116.78472656 -96.123125 116.56945312 -95.15625 116.34765625 C-73.77119249 111.03284049 -53.24977307 99.94294458 -38 84 C-37.34 84 -36.68 84 -36 84 C-35.62875 83.14148438 -35.62875 83.14148438 -35.25 82.265625 C-33.806706 79.64965463 -32.0900239 77.88481013 -30 75.75 C-17.33284176 61.8812946 -8.76617326 44.04495363 -4 26 C-3.56880859 24.39511719 -3.56880859 24.39511719 -3.12890625 22.7578125 C-1.23254226 15.19050357 -0.36955251 7.78608915 0 0 Z " fill="#199BDF" transform="translate(511,135)"/>
<path d="M0 0 C0.33 0 0.66 0 1 0 C1.09176643 33.41897614 1.16214537 66.83792067 1.20426132 100.25699504 C1.20926351 104.21185757 1.21444086 108.16671986 1.21972656 112.12158203 C1.2207758 112.90884874 1.22182505 113.69611544 1.22290608 114.50723872 C1.24026142 127.21665701 1.27177191 139.92600215 1.30861118 152.6353772 C1.3461568 165.69841256 1.36826447 178.76140989 1.37635398 191.82449698 C1.38181368 199.87040902 1.39899039 207.91611421 1.43166587 215.96196249 C1.4555201 222.1551678 1.45778581 228.34821889 1.45243073 234.54146385 C1.45352245 237.06479087 1.46136116 239.58812644 1.4768219 242.11140633 C1.58188305 260.15793653 0.48678451 277.76790114 -6.1875 294.75 C-6.48229248 295.52037598 -6.77708496 296.29075195 -7.08081055 297.08447266 C-16.95288452 321.97304247 -35.12044884 344.03674451 -58 358 C-59.0725 358.68320312 -60.145 359.36640625 -61.25 360.0703125 C-88.1270584 376.43296611 -122.0210146 381.96550193 -152.73046875 374.8359375 C-153.80941406 374.56007813 -154.88835937 374.28421875 -156 374 C-156.98613281 373.80664062 -157.97226562 373.61328125 -158.98828125 373.4140625 C-178.40684549 369.36743342 -195.78429416 358.2746835 -211 346 C-211.70253906 345.44183594 -212.40507812 344.88367188 -213.12890625 344.30859375 C-236.05141083 325.48855084 -251.15647576 293.73356131 -254.76123047 264.71142578 C-255.25652535 259.08694222 -255.2929084 253.45563482 -255.3125 247.8125 C-255.31797852 246.64187012 -255.32345703 245.47124023 -255.32910156 244.26513672 C-255.28226258 238.69049071 -254.96551317 234.27152686 -253 229 C-247.7227132 230.63995367 -243.72507233 233.96706033 -239.375 237.25 C-237.66417044 238.52618638 -235.95322986 239.80222394 -234.2421875 241.078125 C-233.37045898 241.73103516 -232.49873047 242.38394531 -231.60058594 243.05664062 C-226.80492067 246.64033341 -221.97671866 250.17987582 -217.15258789 253.72509766 C-213.04212044 256.74893869 -208.94404091 259.78771612 -204.86328125 262.8515625 C-204.01765625 263.48320312 -203.17203125 264.11484375 -202.30078125 264.765625 C-200.69408004 265.96623689 -199.0909401 267.17163629 -197.4921875 268.3828125 C-189.86946111 274.06301635 -183.76406311 277.79780857 -174.0390625 277.453125 C-167.88422249 276.53543677 -162.94353753 273.94353753 -158.5625 269.5625 C-155.56378439 264.6446064 -153.6433134 260.37456399 -152.80834961 254.64916992 C-152.62027237 253.39564728 -152.43219513 252.14212463 -152.23841858 250.85061646 C-152.04290945 249.47725535 -151.84755618 248.10387206 -151.65234375 246.73046875 C-151.43811182 245.2784963 -151.22291328 243.82666618 -151.00682068 242.37496948 C-150.54623418 239.26822675 -150.09190118 236.16065935 -149.64251709 233.05227661 C-148.93513896 228.16080015 -148.21343616 223.2715097 -147.48876953 218.38256836 C-146.74171145 213.33908341 -145.9951841 208.29552745 -145.25317383 203.251297 C-142.90296594 187.27907252 -140.4854305 171.3175158 -138.03421021 155.36050415 C-137.48649043 151.7935305 -136.94304767 148.22591978 -136.40076923 144.65811539 C-135.90282887 141.38752615 -135.40034702 138.11763869 -134.8984375 134.84765625 C-134.71977646 133.66783173 -134.54111542 132.4880072 -134.35704041 131.27243042 C-134.19200516 130.20421051 -134.02696991 129.1359906 -133.85693359 128.03540039 C-133.71468353 127.10530655 -133.57243347 126.17521271 -133.4258728 125.2169342 C-133 123 -133 123 -132 121 C-130.80246094 120.96261719 -129.60492188 120.92523438 -128.37109375 120.88671875 C-117.93684584 120.49252648 -108.17641095 119.46088442 -98 117 C-97.0615625 116.78472656 -96.123125 116.56945312 -95.15625 116.34765625 C-73.77119249 111.03284049 -53.24977307 99.94294458 -38 84 C-37.34 84 -36.68 84 -36 84 C-35.62875 83.14148438 -35.62875 83.14148438 -35.25 82.265625 C-33.806706 79.64965463 -32.0900239 77.88481013 -30 75.75 C-17.33284176 61.8812946 -8.76617326 44.04495363 -4 26 C-3.71253906 24.93007812 -3.42507813 23.86015625 -3.12890625 22.7578125 C-1.23254226 15.19050357 -0.36955251 7.78608915 0 0 Z " fill="#0082BE" transform="translate(511,135)"/>
<path d="M0 0 C7.10474388 3.18154945 10.6536144 7.96171181 14.45703125 14.53125 C16.26015846 22.10438427 14.78735044 29.47999478 13.3605957 36.9987793 C12.19654093 43.21401229 11.3590519 49.44439836 10.58203125 55.71875 C9.59911909 63.5775591 8.36770073 71.29531426 6.8359375 79.06640625 C4.99259841 88.72050421 3.79365241 98.51813499 2.5546875 108.265625 C1.76793841 114.42957654 0.85710681 120.52310364 -0.3293457 126.62402344 C-1.86666035 134.67340105 -3.13628069 142.75297727 -4.3359375 150.859375 C-4.55618175 152.33253968 -4.77670454 153.80566274 -4.9974823 155.27874756 C-5.46266721 158.38532057 -5.92622157 161.49213078 -6.38861084 164.59912109 C-7.11317852 169.46403787 -7.8453219 174.32779787 -8.57861328 179.19140625 C-10.64858909 192.93102737 -12.71286656 206.67103492 -14.69581604 220.42352295 C-15.39039275 225.22835583 -16.09779332 230.03124748 -16.80752563 234.8338623 C-17.12820925 237.02863088 -17.44244126 239.22435291 -17.74984741 241.42102051 C-18.17259165 244.43953045 -18.61702243 247.45410876 -19.06640625 250.46875 C-19.18066452 251.32797058 -19.29492279 252.18719116 -19.41264343 253.07244873 C-20.48487809 260.01597456 -23.02770588 266.18387739 -27.98046875 271.27734375 C-28.61984375 271.71175781 -29.25921875 272.14617187 -29.91796875 272.59375 C-30.55734375 273.04621094 -31.19671875 273.49867188 -31.85546875 273.96484375 C-36.16515998 276.45434342 -39.74396608 277.4658961 -44.73046875 277.53125 C-45.70628906 277.55960937 -46.68210937 277.58796875 -47.6875 277.6171875 C-54.92710526 276.58420876 -60.5871931 272.17411417 -66.23046875 267.78125 C-67.63605183 266.70745978 -69.04233148 265.6345809 -70.44921875 264.5625 C-71.54363281 263.72525391 -71.54363281 263.72525391 -72.66015625 262.87109375 C-76.48573147 259.9655098 -80.35862484 257.12471624 -84.23046875 254.28125 C-85.8411655 253.0963809 -87.45184244 251.91148488 -89.0625 250.7265625 C-89.86510254 250.13649414 -90.66770508 249.54642578 -91.49462891 248.93847656 C-95.47119393 246.01394254 -99.44443146 243.08489567 -103.41796875 240.15625 C-105.00128571 238.98956112 -106.58461906 237.82289447 -108.16796875 236.65625 C-111.33463542 234.32291667 -114.50130208 231.98958333 -117.66796875 229.65625 C-118.45196045 229.07858887 -119.23595215 228.50092773 -120.04370117 227.90576172 C-121.62465858 226.74081151 -123.20555067 225.57577266 -124.78637695 224.41064453 C-129.58835457 220.87161622 -134.39267719 217.33580591 -139.19921875 213.80297852 C-141.5709872 212.05663886 -143.93789696 210.30385865 -146.3046875 208.55078125 C-149.36779375 206.28533869 -152.4540873 204.05827572 -155.5625 201.85546875 C-156.66428589 201.06197021 -156.66428589 201.06197021 -157.78833008 200.25244141 C-159.16062518 199.26416239 -160.54145542 198.28757621 -161.93237305 197.32568359 C-166.98572695 193.6508788 -169.11510916 190.20671279 -170.3515625 183.96875 C-170.36426313 178.07565872 -168.26928957 173.71038684 -164.29614258 169.39453125 C-162.43639016 167.60248399 -160.53657724 165.87108965 -158.60546875 164.15625 C-157.31653637 162.99087824 -156.02877204 161.82421327 -154.7421875 160.65625 C-154.10869385 160.08350342 -153.4752002 159.51075684 -152.82250977 158.9206543 C-150.29054064 156.57498824 -147.87012088 154.12765423 -145.44311523 151.67431641 C-143.73381808 149.9729542 -141.9541545 148.39197215 -140.10546875 146.84375 C-136.8946312 144.08006971 -133.8952971 141.17005404 -130.91796875 138.15625 C-127.37564676 134.57066301 -123.74241214 131.20733338 -119.9140625 127.93359375 C-117.65664249 125.92356223 -115.54061162 123.80792047 -113.41796875 121.65625 C-110.68967468 118.89064592 -107.93280041 116.24337969 -104.98046875 113.71875 C-101.80760955 111.00005752 -98.85458493 108.12873325 -95.91796875 105.15625 C-92.39949351 101.59486653 -88.79226463 98.25736916 -84.98828125 95.0078125 C-81.59919453 91.97681796 -78.4559313 88.70239728 -75.26171875 85.46875 C-72.59947756 82.84200536 -69.85116498 80.47193123 -66.91796875 78.15625 C-67.24796875 76.50625 -67.57796875 74.85625 -67.91796875 73.15625 C-71.90924568 72.87302906 -73.91798109 73.41850509 -77.19140625 75.69140625 C-78.00399902 76.24562256 -78.8165918 76.79983887 -79.65380859 77.37084961 C-80.52473145 77.98065674 -81.3956543 78.59046387 -82.29296875 79.21875 C-84.18794532 80.51427491 -86.08380962 81.80850211 -87.98046875 83.1015625 C-88.96015625 83.77348633 -89.93984375 84.44541016 -90.94921875 85.13769531 C-95.68591321 88.35833592 -100.48805336 91.47619186 -105.29296875 94.59375 C-107.22792986 95.85276426 -109.16282532 97.11187943 -111.09765625 98.37109375 C-112.05897461 98.99612793 -113.02029297 99.62116211 -114.01074219 100.26513672 C-118.81611208 103.39096769 -123.61681704 106.52394563 -128.41796875 109.65625 C-130.33461275 110.90628476 -132.25127942 112.15628475 -134.16796875 113.40625 C-135.11671875 114.025 -136.06546875 114.64375 -137.04296875 115.28125 C-139.91796875 117.15625 -142.79296875 119.03125 -145.66796875 120.90625 C-146.61720215 121.52532227 -147.56643555 122.14439453 -148.54443359 122.78222656 C-150.45619153 124.02901109 -152.36797528 125.27575605 -154.27978516 126.52246094 C-160.1375854 130.34246157 -165.99452852 134.16377046 -171.8503418 137.98681641 C-173.79622666 139.25608935 -175.74299031 140.52401615 -177.69067383 141.79052734 C-182.04987858 144.625532 -186.39984988 147.47107942 -190.71875 150.3671875 C-206.59164048 160.95142117 -221.1159229 166.92712229 -240.40625 163.4375 C-248.48907175 161.76421097 -256.44165155 159.51658924 -264.36791992 157.22607422 C-269.31239484 155.81640224 -274.28024168 154.58367229 -279.2890625 153.421875 C-279.93623734 153.2709993 -280.58341217 153.1201236 -281.25019836 152.9646759 C-284.49493004 152.20898953 -287.74121475 151.46625225 -290.9934082 150.74291992 C-299.81433054 148.69901148 -305.58817404 146.85484236 -310.91796875 139.15625 C-312.71987038 133.7505451 -312.52788488 129.65562716 -310.41796875 124.46875 C-306.13683991 117.84437939 -297.71678901 115.00638027 -290.69140625 112.1796875 C-289.80748199 111.81698761 -288.92355774 111.45428772 -288.0128479 111.08059692 C-285.10892765 109.8907383 -282.20097347 108.71108666 -279.29296875 107.53125 C-277.23275502 106.68892817 -275.17286477 105.84581474 -273.11328125 105.00195312 C-268.83685745 103.25051422 -264.55906581 101.50247996 -260.28027344 99.75683594 C-251.42704985 96.14195166 -242.59097473 92.48571851 -233.75469971 88.82965088 C-228.97660347 86.85321307 -224.1972167 84.8799008 -219.41796875 82.90625 C-217.501296 82.11459807 -215.58462933 81.3229314 -213.66796875 80.53125 C-179.16796875 66.28125 -144.66796875 52.03125 -110.16796875 37.78125 C-109.21941513 37.38945557 -108.27086151 36.99766113 -107.29356384 36.59399414 C-105.37491509 35.80150989 -103.45626478 35.00902943 -101.53761292 34.21655273 C-96.77625935 32.2499259 -92.01493206 30.28323551 -87.25366211 28.31640625 C-78.26720779 24.60427898 -69.28047509 20.89282948 -60.2928772 17.18347168 C-56.04500738 15.43024943 -51.79727848 13.67668591 -47.54956055 11.9230957 C-45.5235894 11.08682458 -43.49754913 10.25072089 -41.47143555 9.41479492 C-38.66307377 8.25611989 -35.8549502 7.09686934 -33.046875 5.9375 C-32.22296768 5.59775146 -31.39906036 5.25800293 -30.55018616 4.90795898 C-29.77638107 4.58835205 -29.00257599 4.26874512 -28.20532227 3.93945312 C-27.11378593 3.48910706 -27.11378593 3.48910706 -26.00019836 3.02966309 C-24.00827301 2.19412907 -22.03446327 1.32405777 -20.05957031 0.44921875 C-13.73417621 -2.15408302 -6.52660039 -1.88720975 0 0 Z " fill="#FEFEFE" transform="translate(378.91796875,135.84375)"/>
<path d="M0 0 C33.29972073 0.73113159 62.83383589 18.68570884 85.34765625 41.9765625 C108.12577726 66.42456402 118.21690523 99.27700375 117.12548828 132.16210938 C115.57898004 167.1360623 101.43454532 197.8061642 76 222 C75.35289062 222.64195312 74.70578125 223.28390625 74.0390625 223.9453125 C59.62961719 237.68455105 41.11773555 246.88130368 22 252 C20.93394531 252.28746094 19.86789062 252.57492188 18.76953125 252.87109375 C10.10214687 255.12138361 2.00333169 256.15088845 -6.9375 256.0625 C-7.81212891 256.05798828 -8.68675781 256.05347656 -9.58789062 256.04882812 C-11.72529047 256.03714834 -13.86265463 256.01921689 -16 256 C-12.27839312 225.49997729 -12.27839312 225.49997729 -9.5625 211.625 C-8.07430772 203.98767988 -7.08784158 196.30928177 -6.13183594 188.58959961 C-5.37537539 182.57833302 -4.44072424 176.63932093 -3.3125 170.6875 C-1.50333914 160.86552211 -1.20804114 153.34447006 -5 144 C-3.47632813 143.65388672 -3.47632813 143.65388672 -1.921875 143.30078125 C19.40736241 138.31259678 37.29688921 129.52523807 49.4375 110.4375 C59.57488717 92.85223654 63.25955638 72.73314763 57.97070312 52.95849609 C52.4900489 34.63990677 41.50831025 19.7996386 24.8203125 10.1640625 C16.73806626 5.89793252 8.85477523 3.16659394 0 1 C0 0.67 0 0.34 0 0 Z " fill="#199BDF" transform="translate(395,0)"/>
</svg>
