<?xml version="1.0" encoding="UTF-8"?>
<svg version="1.1" xmlns="http://www.w3.org/2000/svg" width="512" height="512">
<path d="M0 0 C1.14106201 0.73186523 1.14106201 0.73186523 2.30517578 1.47851562 C5.7299452 3.68752224 9.14272824 5.91412279 12.54638672 8.15551758 C39.28909588 25.73125409 69.54684663 35.56140194 101.65405273 29.47875977 C120.64413725 25.45954211 137.33117889 17.46439647 153.24609375 6.53515625 C157.1238971 3.88482956 161.10010388 1.4196909 165.125 -1 C165.74060791 -1.37374756 166.35621582 -1.74749512 166.99047852 -2.13256836 C173.30347166 -5.90082964 177.9469735 -7.36754878 185.3125 -7.3125 C186.10575684 -7.30686035 186.89901367 -7.3012207 187.71630859 -7.29541016 C211.77478014 -6.81146161 234.82721373 2.72504155 251.9375 19.7109375 C286.57071279 55.89652283 295.13176715 112.02764033 296 160 C296.02046387 160.73202637 296.04092773 161.46405273 296.06201172 162.21826172 C296.78759353 188.27324484 291.2716597 213.37322076 273.125 232.87890625 C260.51586752 245.77283658 244.46565514 253.34583811 227 257 C226.17268246 257.17622485 225.34536491 257.3524497 224.49297714 257.5340147 C219.59134082 258.18792407 214.74759818 258.14803361 209.80767822 258.14717102 C208.67594075 258.15084771 207.54420328 258.1545244 206.37817073 258.1583125 C202.5831639 258.16933158 198.78818448 258.17319024 194.99316406 258.17700195 C192.27274849 258.1827383 189.55233698 258.18990263 186.83192444 258.19691467 C178.66519263 258.2166456 170.49845965 258.22674254 162.33170998 258.23564246 C158.47875586 258.24003225 154.62580309 258.24539739 150.77285004 258.25063133 C137.95143037 258.2676428 125.13001153 258.28213356 112.30858231 258.28938007 C108.98387908 258.29128975 105.65917586 258.29321011 102.33447266 258.29516602 C101.50820573 258.29564976 100.68193881 258.2961335 99.83063349 258.2966319 C86.46712212 258.30491945 73.10370063 258.33023512 59.74022844 258.36274669 C45.99673898 258.39590797 32.25329504 258.41383713 18.50976539 258.41702431 C10.80292419 258.41918141 3.09621393 258.4278115 -4.61058807 258.45348549 C-11.17891095 258.47531708 -17.74707109 258.48318242 -24.31542614 258.47351871 C-27.65959002 258.46900914 -31.00314993 258.47289594 -34.34731102 258.49028015 C-63.56139182 258.63355265 -88.12918761 253.87999023 -109.8125 232.75 C-127.99740085 214.30627773 -132.55648381 191.07587024 -132.39935303 166.12329102 C-132.39131653 165.15447998 -132.38328003 164.18566895 -132.375 163.1875 C-132.37034729 162.19177979 -132.36569458 161.19605957 -132.36090088 160.17016602 C-132.27565231 144.60059188 -131.69861529 129.36731688 -129 114 C-128.80132324 112.84725586 -128.60264648 111.69451172 -128.39794922 110.50683594 C-123.03374694 80.29854175 -114.27582476 49.80873361 -94 26 C-93.071875 24.83210938 -93.071875 24.83210938 -92.125 23.640625 C-71.91233839 -0.78300778 -28.6253281 -18.46244764 0 0 Z M-36.75 25.625 C-37.78761475 25.89340698 -37.78761475 25.89340698 -38.84619141 26.16723633 C-50.22492382 29.28187204 -58.73020238 34.61474272 -67 43 C-67.62519531 43.61488281 -68.25039062 44.22976563 -68.89453125 44.86328125 C-74.49226409 50.76427727 -78.249216 57.85086786 -82 65 C-82.53753906 66.01964844 -83.07507813 67.03929687 -83.62890625 68.08984375 C-91.1303979 83.30827458 -95.13549879 100.3462945 -98 117 C-98.15098145 117.85964355 -98.30196289 118.71928711 -98.45751953 119.60498047 C-100.72253982 133.13401752 -101.34067812 146.65184139 -101.47277832 160.34490967 C-101.49065316 162.12938741 -101.51604792 163.91380881 -101.54968262 165.69805908 C-101.81683079 181.72808449 -99.85380348 196.36457868 -89 209 C-88.45472656 209.64324219 -87.90945312 210.28648437 -87.34765625 210.94921875 C-74.81050507 224.54834038 -56.89595431 227.38637766 -39.27326775 228.11232471 C-32.0390737 228.29565833 -24.80432621 228.27263718 -17.56835938 228.25878906 C-15.161442 228.26150521 -12.75452547 228.26506963 -10.34761047 228.26940918 C-4.53269109 228.27752526 1.28217002 228.27641628 7.09709108 228.2705839 C11.8300159 228.26603643 16.56292628 228.26546771 21.29585266 228.26763153 C22.31267025 228.26809123 22.31267025 228.26809123 23.35002962 228.26856022 C24.72783784 228.26919977 26.10564607 228.2698482 27.48345429 228.2705054 C40.35304806 228.27618592 53.22261318 228.26968678 66.09220225 228.25890467 C77.0951739 228.24997124 88.09810333 228.25152392 99.10107422 228.26074219 C111.92983426 228.27148532 124.75856929 228.27563681 137.5873332 228.26951766 C138.95960458 228.26888067 140.33187596 228.26825193 141.70414734 228.26763153 C142.37903998 228.26732298 143.05393262 228.26701443 143.74927655 228.26669653 C148.46740414 228.26498167 153.18551565 228.26785835 157.90364075 228.27259064 C164.27318499 228.27840882 170.64265025 228.27428609 177.01218605 228.26280212 C179.33639712 228.2601793 181.66061494 228.26087941 183.98482323 228.26532745 C208.43035009 228.30776336 231.63194665 228.34107479 250.75 210.9375 C257.88244641 203.4465105 262.67631072 193.25859191 264 183 C264.16242188 181.96552734 264.16242188 181.96552734 264.328125 180.91015625 C269.96695563 139.88024387 261.217006 85.21326488 237 51 C234.19527368 47.44033883 231.22613739 44.17971815 228 41 C227.36578125 40.35546875 226.7315625 39.7109375 226.078125 39.046875 C216.07864733 29.5432392 200.30351615 23.24839243 186.41235352 23.54052734 C181.40062475 24.49509404 177.43958022 27.6435975 173.3125 30.5 C171.35944883 31.79504616 169.40502377 33.08802277 167.44921875 34.37890625 C166.51126465 35.00555176 165.57331055 35.63219727 164.60693359 36.27783203 C132.65920064 57.38284311 93.63705788 67.30955156 55.6796875 60.03515625 C30.45551287 54.68312425 8.46606054 43.62298569 -12.72265625 29.19921875 C-13.80417969 28.47347656 -14.88570313 27.74773437 -16 27 C-16.80308594 26.40832031 -17.60617188 25.81664062 -18.43359375 25.20703125 C-24.24888851 22.47198394 -30.76144723 24.07546755 -36.75 25.625 Z " fill="#FFFFFF" transform="translate(177,254)"/>
<path d="M0 0 C25.66299736 20.94036549 43.16480369 49.12120944 47.07714844 82.39550781 C49.97580264 115.25856325 43.66182419 148.74252972 22.05810547 174.66699219 C18.9282958 178.27628641 15.63899941 181.71696602 12.3203125 185.15234375 C11.51722656 186.01859375 10.71414063 186.88484375 9.88671875 187.77734375 C-7.55482359 206.10671501 -30.97193957 216.76249178 -55.6796875 221.15234375 C-56.70578125 221.33796875 -57.731875 221.52359375 -58.7890625 221.71484375 C-91.50497592 225.39374165 -124.96199669 218.79085668 -151.07275391 198.02001953 C-152.62336376 196.74743661 -154.1548769 195.45570073 -155.6796875 194.15234375 C-156.45070801 193.49878906 -156.45070801 193.49878906 -157.23730469 192.83203125 C-177.51554149 175.46156917 -192.17173367 152.38329219 -197.6796875 126.15234375 C-197.85483887 125.38301514 -198.02999023 124.61368652 -198.21044922 123.82104492 C-199.91883499 115.65020609 -200.07808868 107.52758252 -200.0546875 99.21484375 C-200.05414368 98.48790314 -200.05359985 97.76096252 -200.05303955 97.01199341 C-200.01194535 85.03993656 -199.14288656 73.66714889 -195.6796875 62.15234375 C-195.47069824 61.45447754 -195.26170898 60.75661133 -195.04638672 60.03759766 C-185.71681333 30.20392814 -163.27890278 3.31783293 -135.59204102 -11.20092773 C-132.32647515 -12.83860217 -129.01624554 -14.36103623 -125.6796875 -15.84765625 C-124.62523437 -16.32976563 -123.57078125 -16.811875 -122.484375 -17.30859375 C-82.88592375 -34.01893763 -33.41125672 -26.32050683 0 0 Z M-134.6796875 26.15234375 C-135.49050781 26.83039062 -136.30132812 27.5084375 -137.13671875 28.20703125 C-154.3840444 43.09642758 -164.7924236 61.78356308 -168.6796875 84.15234375 C-170.33276835 110.9390939 -167.05452242 134.55507451 -149.48046875 155.8125 C-147.26538994 158.31364484 -144.98965003 160.73883118 -142.6796875 163.15234375 C-141.99390625 163.91289062 -141.308125 164.6734375 -140.6015625 165.45703125 C-126.73236199 180.30221254 -105.5872901 190.20964301 -85.32373047 191.27636719 C-58.58168673 192.09701714 -35.59950647 186.57831994 -15.2421875 168.52734375 C-13.71426554 167.07643899 -12.19267274 165.61881769 -10.6796875 164.15234375 C-10.08027344 163.62640625 -9.48085938 163.10046875 -8.86328125 162.55859375 C5.83183317 149.19319966 15.45836046 127.28957911 16.44433594 107.68652344 C17.21462062 81.18302451 11.7546203 58.75329113 -5.6796875 38.15234375 C-6.12570312 37.56066406 -6.57171875 36.96898438 -7.03125 36.359375 C-18.15746554 21.99085739 -35.61267266 13.07552111 -52.6796875 8.15234375 C-53.86304688 7.79849609 -53.86304688 7.79849609 -55.0703125 7.4375 C-82.26645542 0.32705805 -113.59444646 8.05764857 -134.6796875 26.15234375 Z " fill="#FFFFFF" transform="translate(331.6796875,24.84765625)"/>
</svg>
